<svg xmlns="http://www.w3.org/2000/svg" width="325" height="325" viewBox="0 0 325 325">
  <g id="Group_113" data-name="Group 113" transform="translate(17733 6127)">
    <rect id="Rectangle_426" data-name="Rectangle 426" width="325" height="325" transform="translate(-17733 -6127)" fill="#111"/>
    <g id="Group_112" data-name="Group 112" transform="translate(-285 -590.863)">
      <g id="Path_47" data-name="Path 47" transform="translate(-17347 -5422.866)" fill="none" stroke-linecap="round" stroke-linejoin="round">
        <path d="M0,0,54.511,13.04V127.124L0,110.227Z" stroke="none"/>
        <path d="M -7.62939453125e-06 -0.00439453125 L -7.62939453125e-06 110.2268218994141 L 54.51124954223633 127.1242446899414 L 54.51124954223633 13.03962707519531 L -7.62939453125e-06 -0.00439453125 M 0.000102996826171875 -3.004432678222656 C 0.2329597473144531 -3.004432678222656 0.4671478271484375 -2.977302551269531 0.698150634765625 -2.922035217285156 L 55.20941162109375 10.12198638916016 C 56.55921173095703 10.44498443603516 57.51124954223633 11.65170288085938 57.51124954223633 13.03962707519531 L 57.51124954223633 127.1242446899414 C 57.51124954223633 128.077392578125 57.05833053588867 128.9738006591797 56.29103088378906 129.5392608642578 C 55.76914596557617 129.9238891601562 55.14400100708008 130.124267578125 54.51107025146484 130.124267578125 C 54.21345901489258 130.124267578125 53.91417694091797 130.0799865722656 53.62300872802734 129.9897308349609 L -0.8882484436035156 113.0923080444336 C -2.144008636474609 112.7030487060547 -3.000007629394531 111.5415267944336 -3.000007629394531 110.2268218994141 L -3.000007629394531 -0.00439453125 C -3.000007629394531 -0.9228744506835938 -2.579269409179688 -1.790748596191406 -1.858169555664062 -2.359657287597656 C -1.323551177978516 -2.781440734863281 -0.6674613952636719 -3.004432678222656 0.000102996826171875 -3.004432678222656 Z" stroke="none" fill="#fff"/>
      </g>
      <g id="Path_48" data-name="Path 48" transform="translate(-17326.6 -5453)" fill="none" stroke-linecap="round" stroke-linejoin="round">
        <path d="M-13.922,14.1,42.321,1.792,98.748,14.1,42.321,30.175Z" stroke="none"/>
        <path d="M 42.32061767578125 1.792482376098633 L -13.92188262939453 14.10244941711426 L 42.32061767578125 30.17535018920898 L 98.74846649169922 14.10244941711426 L 42.32061767578125 1.792482376098633 M 42.32062911987305 -1.207521438598633 C 42.53501129150391 -1.207521438598633 42.74936676025391 -1.184545516967773 42.96003341674805 -1.138582229614258 L 99.38788604736328 11.17138290405273 C 100.7315979003906 11.46451568603516 101.7038803100586 12.6337833404541 101.7470016479492 14.0084171295166 C 101.7901000976562 15.38303375244141 100.8929824829102 16.61093330383301 99.57029724121094 16.9876823425293 L 43.14244842529297 33.06058120727539 C 42.87385177612305 33.1370964050293 42.59723281860352 33.17535018920898 42.32062530517578 33.17535018920898 C 42.04314041137695 33.17535018920898 41.76566696166992 33.13685607910156 41.49628448486328 33.05986785888672 L -14.7462158203125 16.98696517944336 C -16.0677490234375 16.60929870605469 -16.96361541748047 15.38189888000488 -16.92040252685547 14.00813293457031 C -16.877197265625 12.6343822479248 -15.90596771240234 11.46570014953613 -14.56331634521484 11.17183303833008 L 41.67918395996094 -1.138132095336914 C 41.89048385620117 -1.184389114379883 42.10556793212891 -1.207521438598633 42.32062911987305 -1.207521438598633 Z" stroke="none" fill="#fff"/>
      </g>
      <g id="Path_49" data-name="Path 49" transform="translate(-17277.639 -5422.866)" fill="none" stroke-linecap="round" stroke-linejoin="round">
        <path d="M54.511,0,0,13.04V127.124l54.511-16.9Z" stroke="none"/>
        <path d="M 54.51124954223633 -0.00439453125 L -7.62939453125e-06 13.03962707519531 L -7.62939453125e-06 127.1242446899414 L 54.51124954223633 110.2268218994141 L 54.51124954223633 -0.00439453125 M 54.51113510131836 -3.004432678222656 C 55.17876052856445 -3.004432678222656 55.83474731445312 -2.781471252441406 56.36941146850586 -2.359657287597656 C 57.09051132202148 -1.790748596191406 57.51124954223633 -0.9228744506835938 57.51124954223633 -0.00439453125 L 57.51124954223633 110.2268218994141 C 57.51124954223633 111.5415267944336 56.65525054931641 112.7030487060547 55.39949035644531 113.0923080444336 L 0.8882293701171875 129.9897308349609 C 0.5971183776855469 130.0799713134766 0.2977256774902344 130.124267578125 0.000171661376953125 130.124267578125 C -0.6328163146972656 130.124267578125 -1.257858276367188 129.9239196777344 -1.779788970947266 129.5392608642578 C -2.547088623046875 128.9738006591797 -3.000007629394531 128.077392578125 -3.000007629394531 127.1242446899414 L -3.000007629394531 13.03962707519531 C -3.000007629394531 11.65170288085938 -2.047969818115234 10.44498443603516 -0.6981697082519531 10.12198638916016 L 53.81309127807617 -2.922035217285156 C 54.04403686523438 -2.977302551269531 54.27833557128906 -3.004432678222656 54.51113510131836 -3.004432678222656 Z" stroke="none" fill="#fff"/>
      </g>
    </g>
  </g>
</svg>
