<svg xmlns="http://www.w3.org/2000/svg" xmlns:xlink="http://www.w3.org/1999/xlink" width="1688" height="1027" viewBox="0 0 1688 1027">
  <defs>
    <linearGradient id="linear-gradient" x1="0.26" y1="0.164" x2="0.839" y2="0.898" gradientUnits="objectBoundingBox">
      <stop offset="0" stop-color="#4047de"/>
      <stop offset="1" stop-color="#e543f7"/>
    </linearGradient>
    <linearGradient id="linear-gradient-2" x1="0.656" y1="0.927" x2="0.021" y2="0.126" gradientUnits="objectBoundingBox">
      <stop offset="0" stop-color="#92d5ff"/>
      <stop offset="1" stop-color="#0784fe"/>
    </linearGradient>
  </defs>
  <g id="Group_97" data-name="Group 97" transform="translate(13495 2395)">
    <path id="Exclusion_1" data-name="Exclusion 1" d="M513.5,1027a521.722,521.722,0,0,1-52.5-2.651,514.786,514.786,0,0,1-50.986-7.781c-16.544-3.385-33.1-7.643-49.211-12.653-15.93-4.955-31.8-10.765-47.178-17.268-15.232-6.442-30.334-13.717-44.887-21.623-14.448-7.848-28.692-16.5-42.338-25.721-13.579-9.174-26.879-19.119-39.531-29.561-12.62-10.415-24.889-21.566-36.466-33.142s-22.726-23.845-33.142-36.466C106.817,827.482,96.871,814.182,87.7,800.6c-9.218-13.644-17.872-27.889-25.721-42.338-7.9-14.552-15.18-29.654-21.623-44.887C33.85,698,28.041,682.13,23.086,666.2c-5.011-16.11-9.268-32.667-12.653-49.211A514.809,514.809,0,0,1,2.651,566a521.176,521.176,0,0,1,0-105,514.817,514.817,0,0,1,7.781-50.986c3.385-16.544,7.643-33.1,12.653-49.211,4.955-15.93,10.764-31.8,17.267-47.178,6.443-15.234,13.718-30.336,21.623-44.887,7.849-14.449,16.5-28.694,25.721-42.338,9.174-13.579,19.119-26.879,29.561-39.531,10.415-12.62,21.566-24.889,33.142-36.466s23.845-22.727,36.466-33.142C199.518,106.817,212.818,96.871,226.4,87.7c13.645-9.218,27.889-17.872,42.338-25.721,14.551-7.9,29.654-15.18,44.887-21.623C329,33.85,344.871,28.041,360.8,23.086c16.11-5.011,32.667-9.268,49.211-12.653A514.817,514.817,0,0,1,461,2.651a521.176,521.176,0,0,1,105,0,514.809,514.809,0,0,1,50.986,7.781c16.544,3.385,33.1,7.643,49.211,12.653,15.93,4.955,31.8,10.764,47.178,17.267,15.234,6.443,30.336,13.718,44.887,21.623,14.449,7.849,28.694,16.5,42.338,25.721,13.579,9.174,26.879,19.119,39.531,29.561,12.621,10.416,24.89,21.566,36.466,33.142s22.727,23.845,33.142,36.466c10.441,12.652,20.387,25.952,29.561,39.531,9.219,13.646,17.873,27.891,25.721,42.338,7.906,14.553,15.181,29.655,21.623,44.887,6.5,15.375,12.313,31.248,17.268,47.178,5.011,16.11,9.268,32.667,12.653,49.211A514.786,514.786,0,0,1,1024.349,461a521.2,521.2,0,0,1,0,105,514.778,514.778,0,0,1-7.781,50.986c-3.385,16.544-7.643,33.1-12.653,49.211-4.955,15.93-10.765,31.8-17.268,47.178-6.442,15.232-13.717,30.334-21.623,44.887-7.849,14.448-16.5,28.692-25.721,42.338-9.174,13.579-19.119,26.879-29.561,39.531-10.416,12.621-21.566,24.89-33.142,36.466s-23.845,22.727-36.466,33.142c-12.652,10.441-25.952,20.387-39.531,29.561-13.646,9.219-27.89,17.872-42.338,25.721-14.554,7.906-29.656,15.181-44.887,21.623-15.375,6.5-31.248,12.313-47.178,17.268-16.11,5.011-32.667,9.268-49.211,12.653A514.778,514.778,0,0,1,566,1024.349,521.722,521.722,0,0,1,513.5,1027ZM274.328,741.859h0a326.54,326.54,0,0,0,30.656,28.029,401.082,401.082,0,0,0,35.135,25.637,347.842,347.842,0,0,0,45.507,25.029c18.7,8.469,40.55,14.865,64.939,19.008a420.5,420.5,0,0,0,70.084,5.583c1,0,2.016,0,3.022-.01a277.909,277.909,0,0,0,45.518-4.1,304.686,304.686,0,0,0,41.581-10.317,352.392,352.392,0,0,0,68.726-30.95c8.787-5.118,17.477-10.657,25.829-16.462,6.682-4.645,13.163-9.469,19.263-14.34,10.427-8.325,16.143-13.919,16.2-13.974a121.329,121.329,0,0,0,14.687-13.167A219.261,219.261,0,0,0,770.742,724.4a270.555,270.555,0,0,0,17.8-25.521c14.229-23.057,25.992-49.269,34.96-77.909a438.28,438.28,0,0,0,13.037-53.681,530.581,530.581,0,0,0,7.327-64.361,274.1,274.1,0,0,0-.016-30.053,262.94,262.94,0,0,0-9.035-55.2c-2.319-8.425-5.1-16.88-8.275-25.133a290.745,290.745,0,0,0-22.2-45.3,331.354,331.354,0,0,0-27.251-38.625c-38.642-47.352-82.741-76.4-99.908-86.687-4.824-2.893-25.278-13.07-25.484-13.173-.038-.016-3.868-1.632-10.884-4.058-6.425-2.222-16.857-5.574-30.07-8.927a428.822,428.822,0,0,0-45.379-8.927,407.964,407.964,0,0,0-56.813-4.058,369.746,369.746,0,0,0-41.264,2.285,339.1,339.1,0,0,0-43.4,7.748,317.089,317.089,0,0,0-44.461,14.552,309.55,309.55,0,0,0-44.458,22.7c-9.087,5.608-17.9,11.611-26.206,17.841-7.989,6-15.717,12.364-22.971,18.929-6.963,6.3-13.675,12.955-19.95,19.773-6.008,6.529-11.776,13.384-17.142,20.374a297.5,297.5,0,0,0-26.717,41.574,308.659,308.659,0,0,0-18.052,41.048,339.131,339.131,0,0,0-16.954,72.715,408.739,408.739,0,0,0-2.822,47.2l0,.316c-.207,19.035,1.111,60.351,2.273,96.8v.024c.864,27.088,1.68,52.674,1.713,64.426a46.79,46.79,0,0,1-1.856,9.98c-.931,3.437-2.208,7.48-3.8,12.018-2.66,7.6-5.319,14.08-5.43,14.352-.069.134-7.044,13.66-27.854,45.49A181.54,181.54,0,0,1,132,775.048a235.662,235.662,0,0,1-17.3,17.215A212.154,212.154,0,0,1,96,807.412a.108.108,0,0,0,.033.052c.107.11.579.365,2.639.365,3.812,0,12.968-.854,34.936-4.92,8.56-1.585,21.284-5.78,37.819-12.47,13.227-5.351,28.909-12.3,46.612-20.66,30.233-14.274,56.026-27.784,56.283-27.919Z" transform="translate(-13495 -2395)" fill="url(#linear-gradient)"/>
    <path id="Exclusion_3" data-name="Exclusion 3" d="M513.5,1027a521.55,521.55,0,0,1-52.5-2.651,514.838,514.838,0,0,1-50.986-7.78c-16.546-3.386-33.1-7.643-49.211-12.654-15.932-4.955-31.805-10.765-47.178-17.268-15.235-6.444-30.338-13.719-44.887-21.623-14.441-7.845-28.686-16.5-42.338-25.72-13.582-9.176-26.882-19.122-39.531-29.561-1.264-1.044-2.538-2.105-3.787-3.156,3.074-2.685,19.256-16.915,35.954-33.632,13.975-13.989,27.582-29.672,33.8-37.932l.138-.183c7.456-9.906,19.931-26.479,29.894-41.318,9.669-14.4,16.448-26.5,16.515-26.623-.042-.037-6.628-5.944-16.4-14.435,2,1.654,3.18,2.494,3.229,2.529.058.057,5.845,5.707,16.2,13.975,6.1,4.872,12.583,9.7,19.263,14.341,8.353,5.806,17.043,11.345,25.829,16.462a352.428,352.428,0,0,0,68.726,30.95,304.83,304.83,0,0,0,41.582,10.318,277.906,277.906,0,0,0,45.518,4.1c1.057.007,2.073.01,3.022.01a420.482,420.482,0,0,0,70.084-5.583c24.392-4.144,46.241-10.539,64.939-19.008a347.835,347.835,0,0,0,45.508-25.029,401.2,401.2,0,0,0,35.134-25.637,324.543,324.543,0,0,0,30.656-28.029c.259.135,26.108,13.672,56.284,27.918,17.7,8.355,33.378,15.306,46.612,20.66,16.537,6.691,29.261,10.886,37.819,12.47,21.966,4.066,31.122,4.92,34.936,4.92,2.061,0,2.532-.255,2.639-.365a.11.11,0,0,0,.033-.052l0,0A211.745,211.745,0,0,1,912.3,792.263,235.664,235.664,0,0,1,895,775.048a181.445,181.445,0,0,1-17.205-22.113c-20.516-31.38-27.564-44.927-27.854-45.488l-.006-.015c-.287-.7-2.874-7.049-5.425-14.339-1.588-4.539-2.865-8.582-3.8-12.018a46.794,46.794,0,0,1-1.857-9.98c.032-11.746.848-37.3,1.711-64.358l0-.068v-.024c1.163-36.45,2.481-77.763,2.273-96.8l0-.316a408.912,408.912,0,0,0-2.822-47.2,339.159,339.159,0,0,0-16.954-72.715,308.615,308.615,0,0,0-18.052-41.048A297.475,297.475,0,0,0,778.3,306.989c-5.369-6.994-11.137-13.849-17.142-20.374-6.277-6.821-12.989-13.474-19.949-19.774-7.255-6.567-14.984-12.935-22.972-18.929-8.3-6.226-17.112-12.229-26.206-17.841a309.5,309.5,0,0,0-44.458-22.7,317.061,317.061,0,0,0-44.461-14.552,339.061,339.061,0,0,0-43.4-7.748,369.825,369.825,0,0,0-41.264-2.284,408.07,408.07,0,0,0-56.812,4.057,429.217,429.217,0,0,0-45.38,8.927c-13.219,3.356-23.648,6.707-30.069,8.927-7.033,2.432-10.849,4.043-10.885,4.058l-.008,0c-.845.421-20.749,10.334-25.476,13.169-17.165,10.289-61.262,39.332-99.907,86.687a331.288,331.288,0,0,0-27.252,38.625,290.747,290.747,0,0,0-22.2,45.3c-3.17,8.248-5.954,16.7-8.275,25.132a262.865,262.865,0,0,0-9.036,55.2,274.164,274.164,0,0,0-.015,30.054,530.543,530.543,0,0,0,7.327,64.361c1.713,9.589,3.732,19.14,6,28.385-2.916-11.434-5.442-23.157-7.509-34.843-1.655-9.357-3.022-18.715-4.064-27.815-1.733-15.139-1.979-24.587-1.991-25.07,0,.012,0,.03,0,.053-.12,1.951-.6,9.151-1.766,19.892-1.219,11.264-3.455,28.791-7.186,48.318a419.975,419.975,0,0,1-16.385,60.5c-3.7,10.419-7.707,20.284-11.924,29.318a223.773,223.773,0,0,1-14.159,26.03c-3.181,4.959-4.7,7.825-6.049,10.354a64.983,64.983,0,0,1-6.186,9.847c-12.9,17.37-20.027,25.13-29.417,34.154-10.329,9.927-22.911,20.386-23.036,20.49.03.052,3.32,5.836,8.874,14.785,5.025,8.1,12.97,20.485,22.281,33.524-3.507-4.821-6.951-9.734-10.24-14.6-9.223-13.652-17.877-27.9-25.721-42.338-7.9-14.551-15.18-29.654-21.623-44.888C33.85,698,28.041,682.131,23.086,666.2c-5.011-16.11-9.268-32.667-12.653-49.211A514.6,514.6,0,0,1,2.651,566a521.126,521.126,0,0,1,0-105,514.572,514.572,0,0,1,7.781-50.986c3.385-16.544,7.642-33.1,12.653-49.211C28.041,344.87,33.85,329,40.353,313.623c6.445-15.239,13.72-30.341,21.623-44.888,7.848-14.448,16.5-28.693,25.721-42.338,9.175-13.582,19.121-26.882,29.561-39.532,10.413-12.617,21.563-24.886,33.142-36.465s23.849-22.729,36.466-33.143c12.657-10.445,25.957-20.39,39.531-29.561,13.65-9.222,27.895-17.875,42.338-25.721,14.556-7.907,29.658-15.182,44.887-21.623C329,33.851,344.869,28.042,360.8,23.086c16.118-5.013,32.675-9.27,49.211-12.653A514.563,514.563,0,0,1,461,2.651a521.127,521.127,0,0,1,105,0,514.581,514.581,0,0,1,50.986,7.781c16.536,3.383,33.093,7.64,49.211,12.653,15.93,4.955,31.8,10.765,47.178,17.267,15.23,6.441,30.332,13.717,44.887,21.623,14.442,7.845,28.686,16.5,42.338,25.721,13.578,9.173,26.878,19.118,39.532,29.561,12.62,10.414,24.888,21.565,36.465,33.143s22.728,23.846,33.143,36.465c10.44,12.65,20.385,25.95,29.56,39.532,9.215,13.638,17.869,27.883,25.721,42.338,7.907,14.555,15.182,29.658,21.623,44.888,6.505,15.381,12.315,31.254,17.268,47.178,5.013,16.119,9.27,32.676,12.653,49.211A514.511,514.511,0,0,1,1024.349,461a521.152,521.152,0,0,1,0,105,514.54,514.54,0,0,1-7.781,50.986c-3.383,16.535-7.64,33.092-12.653,49.211-4.952,15.923-10.762,31.8-17.268,47.178-6.441,15.229-13.716,30.331-21.623,44.888-7.848,14.446-16.5,28.691-25.721,42.338-9.177,13.584-19.122,26.884-29.56,39.531-10.414,12.619-21.565,24.888-33.143,36.466s-23.848,22.729-36.465,33.142C827.486,920.18,814.185,930.126,800.6,939.3c-13.647,9.219-27.891,17.873-42.338,25.72-14.55,7.9-29.652,15.18-44.887,21.623-15.374,6.5-31.247,12.313-47.178,17.268-16.109,5.011-32.666,9.268-49.211,12.654a514.83,514.83,0,0,1-50.986,7.78A521.547,521.547,0,0,1,513.5,1027ZM182.758,906.865h0c-.114-.093-11.625-9.516-29.561-27.391-1.251-1.247-2.564-2.587-4.015-4.1.435.438.859.864,1.217,1.222,10.4,10.4,21.4,20.49,32.68,29.986l-.154.135-.166.144Zm-33.667-31.578c-7.483-7.538-14.851-15.436-21.9-23.476,3.669,3.87,7.251,7.752,10.716,11.505,3.935,4.264,7.648,8.287,11.185,11.969Zm-21.935-23.513c-.826-.872-1.594-1.677-2.348-2.461a65.052,65.052,0,0,1-4.8-5.831l-.4-.52c2.445,2.919,4.984,5.884,7.549,8.81Zm-7.575-8.844c-.772-.923-1.554-1.863-2.324-2.8-3.02-3.659-6.041-7.426-8.98-11.2,2.775,3.516,5.753,7.18,9.106,11.2.781.936,1.545,1.932,2.2,2.792Zm-11.5-14.246c-3.661-4.646-6.935-8.994-10.007-13.291L98,815.3l-.067-.093c3.281,4.51,6.692,9.045,10.141,13.476Zm174.841-76.271a150.409,150.409,0,0,1-11.395-10.586c-3.363-3.434-6.749-7.159-10.066-11.072a209.742,209.742,0,0,0,21.408,21.61l.034.03.02.017Zm-21.65-21.879c-14.907-17.393-27.971-37.95-38.829-61.1a314.6,314.6,0,0,0,16.018,29.444,270.466,270.466,0,0,0,17.8,25.521c1.643,2.08,3.329,4.144,5.012,6.135ZM222.328,669.2a367.354,367.354,0,0,1-18.83-48.231c-2.557-8.166-4.925-16.676-7.038-25.3a434.289,434.289,0,0,0,21.755,64.365c1.324,3.073,2.709,6.156,4.115,9.161Z" transform="translate(-12834 -2395)" fill="url(#linear-gradient-2)"/>
  </g>
</svg>
